<svg xmlns="http://www.w3.org/2000/svg" viewBox="0 0 79.3 22.11">
  <defs>
    <style>
      .cls-1{fill:#fff}
    </style>
  </defs>
  <path d="M7.77 11.76v4.69l2.89 1.34-4.38 2.81-2.76-1.8.24-12.62-2.61-1.83L5 1.76l3 2.17-.15 6.46 4.59-4.62L9.82 4.3l3.87-2.42L17.26 4 11 9.41l6.7 8.87-3.7 2.4zM29 21l-6.63-2.72.05-11.75 7.73-4.75L37 4.79l-.13 12.27zm3.18-3.06l.12-10.78L27.2 5 27 15.89zM54.18 20.58l-4-7.8-2-.54-.05 4.21L51 18l-4.32 2.6-2.77-2.05.2-12.37-2.93-1.88 4.1-2.3 3 1.81 3.3-2L56 3.27l-.13 5.06-2.69 1.81 5.09 8.36zM51.74 9.82V6.06l-3.33-.86-.12 5.33 2-1.19zM67.38 5.25l-.22 11.44L69.85 18l-4.14 2.5-2.78-1.79.19-12.56-2.44-1.83 3.64-2.49 3.08 2.25 3.28-2 5.4 2.29-.32 12.32 2.4 1.13-3.84 2.64-3-1.79.31-11.75z" class="cls-1"/>
</svg>