<svg xmlns="http://www.w3.org/2000/svg" viewBox="0 0 72.22 22.11">
  <defs>
    <style>
      .cls-1{fill:#fff}
    </style>
  </defs>
  <path d="M60.09 9.63h2.01l2.37-3.64-.1 3.64h4.17l.09-5.62-7.31-2.28-3.84 2.35 5.33 1.34-2.72 4.21zM68.43 16.82l.05-3.29h-4.26l-.07 5.31 2.93 1.79 3.99-2.49-2.64-1.32zM59.71 13.53h-2.13l-3.43 5.31 3.91 1.86 3.31-2.76-3.67-1 2.01-3.41zM43.52 9.63h4.15l.11-4.47 3.32.17 2.35-3.23-12.22-.34-2.25 3.13 4.64.12-.1 4.62zM47.58 13.53h-4.16l-.12 5.27 2.77 1.81 4.32-2.82-2.88-1.34.07-2.92zM25.74 13.53h-2.13l-3.43 5.31 3.91 1.86 3.3-2.76-3.66-1 2.01-3.41zM26.12 9.63h2.01l2.37-3.64-.1 3.64h4.17l.09-5.62-7.31-2.28-3.84 2.35 5.33 1.34-2.72 4.21zM34.51 13.53h-4.26l-.07 5.31 2.94 1.79 3.98-2.49-2.64-1.32.05-3.29zM12.46 13.53l-.07 4.24-5.33-1.2 1.47-1.08-.21-1.96H4.14l.38 3.21-2.15 1.74 6.6 2.27 7.85-3.76.04-3.46h-4.4zM3.4 7.26l.28 2.37h4.24l-.39-3.77 5.03 1.4-.04 2.37h4.4l.07-5.06L5.35 1.15l-4.2 2.91L6.47 5.6 3.4 7.26z" class="cls-1"/>
</svg>